<svg width="547" height="473" viewBox="0 0 547 473" fill="none" xmlns="http://www.w3.org/2000/svg">
<path d="M261.403 61.1512C272.66 49.8936 272.66 31.6413 261.403 20.3837C250.145 9.12606 231.893 9.12608 220.635 20.3837C209.377 31.6414 209.377 49.8936 220.635 61.1512C231.893 72.4089 250.145 72.4089 261.403 61.1512Z" fill="#FBD931"/>
<path d="M454.981 266.796C452.087 280.931 446.93 294.473 439.918 307.124C393.023 391.825 264.506 437.607 199.357 368.118C190.008 358.138 181.957 347.787 175.13 337.176C152.796 302.375 143.854 264.904 146.637 229.398C148.9 200.534 158.917 173.005 175.761 149.298C182.439 139.874 190.23 131.044 199.06 122.993C320.38 11.9137 477.13 158.016 454.981 266.796Z" fill="#5F44EC"/>
<path d="M439.918 307.124C393.023 391.825 264.506 437.607 199.357 368.118C190.007 358.138 181.957 347.787 175.13 337.176C174.982 334.95 174.87 332.649 174.759 330.275C173.572 307.977 173.498 296.328 197.613 294.658C203.512 294.25 212.75 293.471 223.917 292.506C225.921 289.242 232.599 278.111 237.942 266.61C232.636 265.942 176.614 258.522 157.915 242.198C154.131 238.896 150.31 234.444 146.637 229.361C131.203 208.139 117.698 176.047 115.806 171.187C113.802 166.067 113.617 162.023 114.767 154.455C113.914 155.456 106.308 145.476 107.421 141.952C109.276 136.201 127.381 124.143 137.473 122.956C139.254 122.734 144.299 131.526 143.149 131.749C149.456 132.565 162.033 135.608 164.89 138.909C166.152 140.356 170.641 144.363 175.724 149.298C183.96 157.237 193.717 167.588 193.866 173.376C194.126 182.763 195.535 182.651 198.429 182.911C201.36 183.171 203.772 184.58 203.512 187.994C203.252 191.444 203.772 194.115 209.634 193.188C215.496 192.297 219.428 193.299 220.578 198.159C221.728 202.982 237.756 203.131 243.84 203.242C249.925 203.353 280.867 205.765 284.503 207.954C286.692 187.103 295.04 154.084 295.04 154.084C295.04 154.084 269.588 145.625 269.959 141.544C270.182 139.243 290.55 131.341 303.832 126.444C304.018 126.369 312.032 127.334 316.335 125.553C316.335 125.553 309.249 144.92 331.992 152.785C331.992 152.785 332.289 156.569 333.921 156.792C335.034 156.94 336.704 156.05 337.446 152.525C337.78 150.93 337.928 148.778 337.78 145.959C337.78 145.959 337.928 145.959 338.225 145.959H338.262C342.009 145.996 345.534 146.367 348.465 146.997C352.546 147.888 355.402 149.372 355.996 151.338C356.924 154.343 354.66 157.868 345.571 159.241C342.157 169.592 342.677 178.644 345.942 179.127C349.54 179.683 350.913 178.496 352.657 177.235C354.401 175.973 355.773 182.392 348.465 187.252C342.751 191.036 335.591 192.483 329.988 188.773C328.579 198.827 327.057 210.143 325.907 220.457C328.504 220.494 366.644 244.795 376.958 250.249C383.636 253.81 396.992 261.973 407.121 273.659C429.159 272.435 435.577 274.105 437.952 291.282C438.508 294.547 439.176 300.112 439.918 307.124Z" fill="#FFFEF2"/>
<path d="M301.532 144.698C300.753 144.364 300.419 143.436 300.753 142.694L302.348 139.132C302.682 138.353 303.61 138.019 304.352 138.353C305.131 138.687 305.465 139.615 305.131 140.357L303.536 143.918C303.239 144.698 302.311 145.069 301.532 144.698Z" fill="#202D37"/>
<path d="M310.882 148.927C310.103 148.593 309.769 147.665 310.103 146.923L311.698 143.362C312.032 142.583 312.959 142.249 313.701 142.583C314.48 142.916 314.814 143.844 314.48 144.586L312.885 148.148C312.551 148.927 311.661 149.261 310.882 148.927Z" fill="#202D37"/>
<path d="M246.178 48.6066C245.584 50.1277 244.731 51.2407 243.692 51.9456C242.653 52.6506 241.318 52.9103 239.722 52.7619L238.127 56.7687C238.09 56.88 238.016 56.9542 237.904 57.0284C237.793 57.0655 237.682 57.0655 237.571 57.0284L232.302 54.9137C232.191 54.8766 232.117 54.8024 232.043 54.6911C232.005 54.5798 232.005 54.4685 232.043 54.3572L233.452 50.7955C232.488 50.3503 231.597 49.9422 230.855 49.497C230.744 49.4599 230.707 49.3486 230.67 49.2373C230.633 49.126 230.633 49.0147 230.67 48.9034L232.785 44.8223C232.859 44.711 232.933 44.6368 233.081 44.5997C233.23 44.5626 233.341 44.5997 233.452 44.6739C233.749 44.8594 234.046 45.082 234.38 45.2675C234.714 45.453 235.122 45.7127 235.641 45.9724C236.161 46.2692 236.643 46.4918 237.125 46.6773C237.645 46.9 238.09 47.0113 238.498 47.0113C238.906 47.0113 239.24 46.937 239.463 46.7886C239.685 46.6402 239.871 46.4918 239.982 46.3434C240.093 46.195 240.205 46.0466 240.242 45.9353C240.316 45.7869 240.316 45.6014 240.353 45.4159C240.353 45.2304 240.353 44.9707 240.279 44.6368C240.205 44.3029 240.019 43.9319 239.722 43.5238C239.389 43.1157 238.98 42.7076 238.424 42.3366C237.793 41.8913 237.274 41.3719 236.791 40.7412C236.309 40.1105 235.938 39.4056 235.604 38.6265C235.307 37.8474 235.159 36.957 235.159 35.9923C235.159 35.0277 235.382 34.026 235.753 33.0243C236.309 31.6144 237.125 30.5756 238.238 29.9078C239.314 29.24 240.65 28.9432 242.171 29.0174L243.803 24.8992C243.841 24.7879 243.915 24.7137 244.063 24.6395C244.175 24.6024 244.286 24.5653 244.397 24.6395L249.665 26.7543C249.777 26.7914 249.851 26.9027 249.925 27.014C249.962 27.1253 249.962 27.2737 249.925 27.385L248.515 30.9466C249.443 31.3548 250.333 31.8 251.224 32.2823C251.335 32.3194 251.372 32.4307 251.446 32.542C251.483 32.6533 251.483 32.7646 251.409 32.8759L249.294 36.957C249.22 37.0683 249.146 37.1425 248.998 37.1796C248.849 37.2167 248.738 37.2167 248.627 37.1425C247.291 36.252 246.03 35.5471 244.842 35.0648C244.36 34.8422 243.915 34.7309 243.507 34.7309C243.099 34.7309 242.765 34.8051 242.542 34.9535C242.319 35.1019 242.134 35.2503 241.986 35.3987C241.874 35.5471 241.763 35.6955 241.726 35.8068C241.689 35.9552 241.652 36.1036 241.615 36.2891C241.615 36.4746 241.615 36.7344 241.689 37.0683C241.763 37.4022 241.948 37.7732 242.282 38.1813C242.616 38.5894 243.024 38.9975 243.581 39.3685C244.175 39.8137 244.731 40.3331 245.213 40.9638C245.696 41.5946 246.104 42.2995 246.401 43.0786C246.697 43.8577 246.846 44.7481 246.846 45.7127C246.772 46.6402 246.549 47.6049 246.178 48.6066Z" fill="#202D37"/>
<path d="M237.719 57.5854C237.608 57.5854 237.459 57.5483 237.348 57.5112L232.08 55.3964C231.82 55.2851 231.634 55.0996 231.523 54.877C231.412 54.6173 231.412 54.3576 231.523 54.0979L232.748 51.0185C231.968 50.6475 231.226 50.2765 230.596 49.9426C230.373 49.8313 230.225 49.6087 230.15 49.3861C230.076 49.1635 230.076 48.9038 230.188 48.6441C230.188 48.6441 230.188 48.607 230.225 48.607L232.339 44.5259C232.488 44.2662 232.71 44.0807 233.007 44.0065C233.304 43.9323 233.564 44.0065 233.823 44.1549C234.12 44.3404 234.417 44.563 234.714 44.7485C235.011 44.934 235.419 45.1566 235.938 45.4534C236.42 45.7131 236.903 45.9358 237.348 46.1213C237.793 46.3068 238.201 46.4181 238.535 46.4181C238.906 46.4181 239.092 46.3439 239.166 46.2697C239.351 46.1584 239.5 46.01 239.574 45.9358C239.685 45.8245 239.722 45.7131 239.76 45.676C239.797 45.6018 239.834 45.4905 239.834 45.3421C239.834 45.2308 239.834 45.0453 239.76 44.6743C239.722 44.5259 239.611 44.2291 239.277 43.7839C238.98 43.4129 238.609 43.0419 238.127 42.708C237.459 42.2628 236.866 41.6692 236.346 41.0013C235.827 40.3335 235.419 39.5915 235.085 38.7382C234.751 37.8849 234.565 36.9203 234.603 35.8815C234.603 34.8426 234.825 33.7667 235.27 32.7279C235.864 31.2068 236.792 30.0937 237.979 29.3517C239.055 28.6839 240.353 28.35 241.837 28.35L243.321 24.6028C243.433 24.3431 243.581 24.1576 243.841 24.0463C244.1 23.935 244.36 23.8979 244.62 24.0092L249.888 26.124C250.148 26.2353 250.333 26.4208 250.445 26.6805C250.556 26.9402 250.556 27.1999 250.445 27.4596L249.22 30.539C249.999 30.91 250.741 31.281 251.483 31.652C251.706 31.7633 251.854 31.9859 251.966 32.2085C252.077 32.4682 252.04 32.765 251.892 33.0247L249.777 37.1058C249.628 37.3655 249.406 37.5139 249.146 37.6252C248.849 37.6994 248.552 37.6623 248.293 37.4768C246.994 36.6235 245.77 35.9185 244.62 35.4362C244.175 35.2507 243.804 35.1394 243.47 35.1394C243.173 35.1394 242.95 35.1765 242.802 35.2878C242.542 35.4362 242.431 35.5475 242.357 35.6217C242.282 35.6959 242.208 35.8073 242.171 35.8815C242.134 35.9186 242.134 36.0299 242.097 36.2154C242.097 36.3267 242.097 36.5122 242.171 36.8461C242.208 37.1058 242.394 37.4026 242.653 37.7365C242.95 38.1075 243.321 38.4785 243.804 38.8124C244.434 39.2947 245.028 39.8512 245.547 40.519C246.067 41.1869 246.475 41.9289 246.809 42.7822C247.143 43.6355 247.291 44.6001 247.291 45.6389C247.291 46.6778 247.068 47.7166 246.623 48.7925C245.955 50.4249 245.065 51.6122 243.952 52.3913C242.913 53.0962 241.578 53.393 240.019 53.3188L238.572 56.9547C238.461 57.2144 238.276 57.3999 238.053 57.5112C237.979 57.5483 237.83 57.5854 237.719 57.5854ZM232.562 54.3947L237.645 56.4353L239.203 52.5397C239.277 52.3171 239.537 52.1687 239.76 52.2058C241.244 52.3542 242.468 52.0945 243.395 51.5009C244.323 50.8701 245.102 49.8313 245.659 48.4215C246.03 47.494 246.215 46.5665 246.252 45.676C246.252 44.7856 246.141 43.9694 245.844 43.2274C245.547 42.4854 245.176 41.8176 244.731 41.2611C244.286 40.6674 243.766 40.1851 243.21 39.777C242.653 39.3689 242.171 38.9237 241.8 38.4785C241.429 37.9962 241.206 37.551 241.132 37.1429C241.058 36.7719 241.021 36.438 241.021 36.2154C241.021 35.9557 241.095 35.7331 241.169 35.5475C241.244 35.3249 241.392 35.1394 241.54 34.9539C241.689 34.7684 241.911 34.62 242.208 34.4345C242.542 34.2119 242.987 34.1006 243.507 34.1006C243.989 34.1006 244.508 34.2119 245.065 34.4716C246.252 34.9539 247.514 35.6588 248.849 36.5493L250.853 32.6537C250.036 32.2085 249.146 31.8004 248.256 31.3923C247.996 31.281 247.848 30.9471 247.959 30.6874L249.332 27.1999L244.212 25.1593L242.616 29.2033C242.542 29.4259 242.32 29.5743 242.06 29.5372C240.65 29.463 239.426 29.7598 238.461 30.3534C237.459 30.9471 236.717 31.9117 236.198 33.1731C235.827 34.1006 235.641 35.0281 235.641 35.9186C235.641 36.809 235.753 37.6252 236.049 38.3672C236.346 39.1092 236.717 39.777 237.162 40.3706C237.608 40.9643 238.127 41.4466 238.684 41.8547C239.277 42.2628 239.76 42.708 240.093 43.1532C240.464 43.6355 240.687 44.0807 240.761 44.4888C240.835 44.8598 240.873 45.1566 240.835 45.4163C240.835 45.6761 240.761 45.8987 240.687 46.1213C240.613 46.3068 240.502 46.4923 240.316 46.6778C240.168 46.8633 239.945 47.0488 239.685 47.2343C239.351 47.4569 238.906 47.5682 238.424 47.5682C237.942 47.5682 237.422 47.4198 236.829 47.1972C236.346 47.0117 235.827 46.752 235.307 46.4552C234.788 46.1584 234.343 45.9358 234.009 45.7131C233.712 45.5276 233.415 45.3421 233.156 45.1566L231.152 49.0522C231.857 49.4603 232.71 49.8684 233.638 50.2765C233.898 50.3878 234.046 50.7218 233.935 50.9815L232.562 54.3947Z" fill="#202D37"/>
<path d="M469.375 128.15C469.821 128.855 470.006 129.523 469.969 130.154C469.932 130.784 469.635 131.415 469.116 132.009L470.266 133.864C470.303 133.901 470.303 133.975 470.303 134.049C470.303 134.123 470.266 134.161 470.192 134.198L467.743 135.719C467.706 135.756 467.632 135.756 467.558 135.756C467.483 135.756 467.446 135.719 467.409 135.645L466.407 134.012C465.925 134.272 465.517 134.494 465.109 134.68C465.072 134.717 464.998 134.717 464.961 134.68C464.886 134.643 464.849 134.606 464.812 134.569L463.81 132.491C463.773 132.417 463.773 132.38 463.81 132.306C463.847 132.231 463.885 132.194 463.959 132.194C464.144 132.12 464.293 132.083 464.478 132.009C464.664 131.935 464.886 131.823 465.146 131.712C465.406 131.601 465.665 131.452 465.888 131.341C466.111 131.193 466.296 131.044 466.445 130.896C466.556 130.747 466.63 130.562 466.63 130.451C466.63 130.302 466.63 130.191 466.593 130.117C466.556 130.005 466.556 129.931 466.519 129.894C466.482 129.82 466.407 129.746 466.333 129.708C466.259 129.634 466.148 129.56 465.999 129.486C465.851 129.412 465.628 129.375 465.369 129.375C465.109 129.375 464.812 129.449 464.515 129.523C464.144 129.634 463.773 129.708 463.365 129.708C462.957 129.708 462.549 129.671 462.141 129.56C461.733 129.449 461.325 129.263 460.954 128.929C460.546 128.633 460.212 128.262 459.952 127.779C459.544 127.149 459.395 126.481 459.433 125.85C459.507 125.219 459.766 124.589 460.249 123.995L459.099 122.103C459.062 122.066 459.062 121.992 459.062 121.917C459.062 121.843 459.099 121.806 459.173 121.769L461.621 120.248C461.659 120.211 461.733 120.211 461.807 120.211C461.881 120.211 461.918 120.248 461.955 120.322L462.957 121.954C463.402 121.695 463.848 121.472 464.293 121.25C464.33 121.212 464.404 121.212 464.478 121.25C464.552 121.25 464.59 121.287 464.627 121.361L465.628 123.438C465.665 123.513 465.665 123.55 465.628 123.624C465.591 123.698 465.554 123.735 465.517 123.735C464.738 123.995 464.07 124.292 463.514 124.626C463.291 124.774 463.105 124.922 462.994 125.071C462.883 125.219 462.809 125.405 462.809 125.553C462.809 125.702 462.809 125.813 462.809 125.887C462.846 125.961 462.846 126.073 462.883 126.11C462.92 126.184 462.994 126.221 463.068 126.295C463.143 126.369 463.254 126.444 463.402 126.481C463.551 126.555 463.773 126.592 464.033 126.592C464.293 126.592 464.59 126.518 464.886 126.444C465.257 126.332 465.628 126.258 466.036 126.258C466.445 126.258 466.853 126.295 467.261 126.407C467.669 126.518 468.077 126.74 468.448 127.037C468.782 127.334 469.116 127.705 469.375 128.15Z" fill="#202D37"/>
<path d="M467.632 136.238C467.558 136.238 467.521 136.238 467.447 136.201C467.261 136.164 467.075 136.016 466.964 135.83L466.222 134.643C465.925 134.791 465.629 134.94 465.332 135.088C465.146 135.162 464.961 135.162 464.775 135.125C464.59 135.051 464.441 134.94 464.33 134.791C464.33 134.791 464.33 134.754 464.293 134.754L463.291 132.677C463.18 132.454 463.18 132.231 463.254 132.046C463.328 131.823 463.514 131.675 463.736 131.601C463.885 131.563 464.07 131.489 464.219 131.415C464.404 131.341 464.59 131.267 464.849 131.118C465.109 131.007 465.332 130.896 465.517 130.747C465.703 130.636 465.851 130.525 465.925 130.413C466 130.302 466 130.265 466 130.265C466 130.154 466 130.079 466 130.079C466 130.042 465.962 130.005 465.962 130.005C465.962 130.005 465.962 129.968 465.888 129.931C465.888 129.931 465.814 129.857 465.666 129.783C465.629 129.783 465.554 129.746 465.295 129.746C465.072 129.746 464.849 129.783 464.59 129.894C464.182 130.042 463.736 130.117 463.291 130.117C462.846 130.117 462.401 130.042 461.918 129.931C461.436 129.82 460.954 129.56 460.509 129.226C460.063 128.892 459.692 128.447 459.359 127.928C458.913 127.186 458.691 126.406 458.765 125.664C458.839 125.034 459.062 124.403 459.47 123.809L458.505 122.251C458.394 122.066 458.357 121.88 458.394 121.695C458.431 121.472 458.579 121.287 458.765 121.175L461.214 119.654C461.399 119.543 461.622 119.506 461.807 119.543C462.03 119.58 462.178 119.728 462.289 119.877L463.032 121.064C463.328 120.916 463.625 120.767 463.959 120.619C464.145 120.545 464.33 120.545 464.516 120.582C464.738 120.656 464.924 120.804 464.998 120.99L466 123.067C466.111 123.253 466.111 123.476 466.037 123.698C465.962 123.921 465.777 124.106 465.554 124.18C464.849 124.44 464.219 124.737 463.699 125.034C463.514 125.145 463.403 125.219 463.328 125.331C463.254 125.405 463.254 125.479 463.254 125.479C463.254 125.627 463.254 125.664 463.254 125.702C463.254 125.739 463.254 125.739 463.291 125.776C463.291 125.776 463.291 125.813 463.328 125.813C463.328 125.813 463.403 125.85 463.551 125.924C463.588 125.924 463.699 125.961 463.922 125.961C464.145 125.961 464.367 125.924 464.627 125.813C465.035 125.702 465.48 125.627 465.925 125.59C466.371 125.59 466.853 125.627 467.298 125.776C467.78 125.924 468.263 126.147 468.708 126.481C469.153 126.815 469.524 127.26 469.858 127.779C470.34 128.595 470.563 129.375 470.526 130.117C470.489 130.747 470.229 131.378 469.784 131.972L470.711 133.493C470.823 133.678 470.86 133.864 470.823 134.086C470.786 134.309 470.637 134.457 470.489 134.569L468.04 136.09C467.892 136.201 467.78 136.238 467.632 136.238ZM466.408 133.381C466.593 133.381 466.779 133.493 466.89 133.641L467.743 135.014L469.635 133.864L468.671 132.306C468.559 132.083 468.56 131.823 468.745 131.638C469.19 131.118 469.45 130.636 469.487 130.117C469.524 129.597 469.339 129.041 468.968 128.447C468.708 128.039 468.448 127.705 468.114 127.445C467.78 127.186 467.446 127 467.113 126.926C466.742 126.815 466.408 126.777 466.074 126.777C465.74 126.777 465.406 126.852 465.072 126.926C464.701 127.037 464.367 127.111 464.033 127.111C463.699 127.111 463.403 127.074 463.18 126.963C462.994 126.852 462.809 126.777 462.698 126.666C462.586 126.555 462.475 126.444 462.401 126.332C462.327 126.221 462.252 126.073 462.252 125.924C462.215 125.776 462.215 125.627 462.215 125.442C462.215 125.182 462.327 124.922 462.512 124.663C462.698 124.44 462.92 124.255 463.217 124.069C463.699 123.772 464.293 123.513 464.961 123.253L464.256 121.806C463.922 121.954 463.551 122.14 463.217 122.325C462.957 122.474 462.623 122.4 462.475 122.14L461.622 120.767L459.73 121.917L460.731 123.55C460.843 123.735 460.843 123.995 460.694 124.18C460.286 124.7 460.063 125.219 459.989 125.739C459.952 126.258 460.063 126.777 460.434 127.334C460.694 127.742 460.991 128.076 461.325 128.336C461.659 128.595 461.993 128.781 462.327 128.855C462.698 128.966 463.032 129.004 463.403 129.004C463.736 129.004 464.07 128.966 464.367 128.855C464.738 128.744 465.072 128.67 465.406 128.67C465.74 128.67 466.037 128.707 466.259 128.818C466.445 128.929 466.593 129.004 466.704 129.115C466.816 129.226 466.927 129.337 467.001 129.449C467.075 129.56 467.113 129.708 467.15 129.857C467.187 130.005 467.187 130.154 467.187 130.339C467.187 130.599 467.075 130.859 466.89 131.118C466.704 131.341 466.482 131.526 466.185 131.712C465.962 131.86 465.703 131.972 465.406 132.12C465.109 132.231 464.887 132.343 464.701 132.417C464.627 132.454 464.553 132.454 464.516 132.491L465.22 133.975C465.517 133.827 465.851 133.641 466.185 133.456C466.222 133.419 466.333 133.381 466.408 133.381ZM465.258 123.142C465.258 123.179 465.258 123.179 465.258 123.142C465.258 123.179 465.258 123.179 465.258 123.142Z" fill="#202D37"/>
<path d="M464.108 146.738C458.431 146.738 451.234 142.88 445.965 126.667C441.588 113.125 425.931 84.7428 405.6 83.2959C405.043 83.2588 404.561 82.8507 404.413 82.2941C404.264 81.7376 404.524 81.1811 405.006 80.8843C406.305 80.0681 436.69 61.2951 444.556 59.2175C448.785 58.1045 453.46 59.8482 458.135 64.2632C462.475 68.3814 466.593 74.6514 470.081 82.4054C474.199 91.6064 478.837 101.104 484.81 108.153C492.267 116.909 499.761 119.469 507.812 115.982C508.258 115.796 508.814 115.87 509.185 116.204C509.556 116.538 509.704 117.058 509.556 117.54C505.586 130.97 473.383 145.551 466 146.627C465.332 146.701 464.738 146.738 464.108 146.738ZM409.421 81.2553C419.661 83.4814 428.009 91.5693 433.388 98.3587C440.994 107.894 446.114 118.838 448.414 125.85C452.644 138.91 458.431 145.031 465.555 144.03C471.713 143.139 499.094 130.748 505.846 119.395C486.146 124.849 473.309 96.0956 467.669 83.4814C461.065 68.6782 452.05 59.9595 445.223 61.7774C439.139 63.3728 417.509 76.3209 409.421 81.2553Z" fill="#202D37"/>
<path d="M438.582 77.2485C438.1 77.2485 437.655 76.9888 437.432 76.5436C437.098 75.9128 437.358 75.1337 437.989 74.7998C438.026 74.7627 443.443 71.9431 450.306 68.4927C450.937 68.1588 451.716 68.4185 452.05 69.0492C452.384 69.6799 452.124 70.459 451.493 70.7929C444.667 74.2804 439.25 77.063 439.213 77.1001C438.991 77.2114 438.768 77.2485 438.582 77.2485Z" fill="#202D37"/>
<path d="M437.544 85.7078C437.136 85.7078 436.765 85.5223 436.505 85.1883C436.097 84.5947 436.208 83.7785 436.802 83.3704C439.102 81.7009 446.633 77.8424 454.35 74.4291C455.018 74.1323 455.76 74.4291 456.057 75.097C456.354 75.7648 456.057 76.5068 455.389 76.8036C447.932 80.1055 440.438 83.8898 438.323 85.4481C438.1 85.5965 437.804 85.7078 437.544 85.7078Z" fill="#202D37"/>
<path d="M447.339 93.6837C446.894 93.6837 446.485 93.4611 446.226 93.053C445.855 92.4594 446.04 91.6432 446.634 91.2722C446.708 91.2351 453.609 86.9685 458.766 84.2601C459.396 83.9262 460.176 84.1859 460.509 84.8167C460.843 85.4474 460.584 86.2265 459.953 86.5604C454.907 89.1946 448.044 93.424 447.969 93.4611C447.821 93.6095 447.561 93.6837 447.339 93.6837Z" fill="#202D37"/>
<path d="M453.349 103.998C452.94 103.998 452.532 103.813 452.31 103.479C451.902 102.885 452.013 102.069 452.607 101.661C452.644 101.624 457.393 98.2104 461.845 95.3908C462.438 95.0198 463.254 95.1682 463.625 95.7989C463.996 96.3925 463.848 97.2087 463.217 97.5797C458.802 100.362 454.165 103.738 454.091 103.776C453.905 103.924 453.608 103.998 453.349 103.998Z" fill="#202D37"/>
<path d="M472.493 298.035C471.788 298.035 471.194 297.478 471.194 296.773C471.194 296.699 471.194 296.513 471.157 296.291C470.378 286.979 471.268 284.678 472.864 284.048C474.941 283.231 482.362 283.046 483.846 283.009C483.846 283.009 483.846 283.009 483.883 283.009C484.588 283.009 485.181 283.565 485.181 284.27C485.181 284.975 484.625 285.569 483.92 285.606C480.803 285.68 475.498 285.94 473.977 286.385C473.754 286.756 473.161 288.537 473.791 296.031C473.828 296.476 473.828 296.588 473.828 296.699C473.791 297.441 473.198 298.035 472.493 298.035Z" fill="#FBD931"/>
<path d="M544.765 296.773C544.728 296.773 544.691 296.773 544.654 296.773C543.949 296.699 543.392 296.068 543.467 295.363C543.689 292.766 543.912 288.203 543.541 286.793C542.799 286.162 538.866 285.606 534.971 285.606C534.266 285.606 533.672 285.012 533.672 284.307C533.672 283.602 534.266 283.009 534.971 283.009C539.608 283.009 545.247 283.528 545.989 285.94C546.657 288.092 546.138 294.362 546.027 295.586C545.989 296.291 545.433 296.773 544.765 296.773Z" fill="#FBD931"/>
<path d="M540.016 347.638C538.013 347.638 536.158 347.379 535.527 347.267C534.822 347.156 534.34 346.488 534.451 345.783C534.562 345.078 535.23 344.596 535.935 344.707C539.794 345.301 543.355 345.004 543.726 344.336C543.912 341.48 543.726 336.137 543.726 336.063C543.689 335.358 544.246 334.727 544.988 334.727C545.693 334.727 546.323 335.247 546.323 335.989C546.323 336.211 546.509 341.517 546.323 344.522C546.286 345.264 545.915 345.932 545.284 346.451C544.134 347.379 542.02 347.638 540.016 347.638Z" fill="#FBD931"/>
<path d="M482.732 348.38C481.397 348.38 476.833 348.306 475.275 347.453C474.719 347.156 473.198 346.34 473.198 336.026C473.198 335.321 473.791 334.727 474.496 334.727C475.201 334.727 475.795 335.321 475.795 336.026C475.795 339.736 476.128 344.188 476.648 345.227C477.538 345.561 480.395 345.746 482.732 345.746C483.437 345.746 484.031 346.34 484.031 347.045C484.031 347.75 483.474 348.38 482.732 348.38Z" fill="#FBD931"/>
<path d="M494.16 315.101C491.006 315.101 487.556 315.027 485.812 314.767C485.181 314.656 484.105 314.507 483.846 313.506C483.178 311.02 483.104 302.413 486.925 297.589C489.374 294.51 495.236 293.768 504.399 295.326C504.622 295.363 504.808 295.4 504.882 295.4C505.364 295.438 505.772 295.697 505.995 296.142C506.143 296.439 506.514 297.144 506.477 305.047C506.44 312.986 506.069 313.543 505.883 313.84C505.475 314.47 505.216 314.915 496.682 315.064C495.903 315.101 495.05 315.101 494.16 315.101ZM486.22 312.207C489.04 312.652 500.652 312.615 503.657 312.17C503.917 309.573 503.954 300.557 503.732 297.886C493.232 296.105 489.967 297.96 488.966 299.222C485.997 302.932 485.849 309.684 486.22 312.207ZM504.808 295.438H504.845H504.808Z" fill="#202D37"/>
<path d="M497.536 309.87H495.347C494.048 309.87 492.972 308.794 492.972 307.495V305.937C492.972 304.639 494.048 303.563 495.347 303.563H497.536C498.834 303.563 499.91 304.639 499.91 305.937V307.495C499.91 308.831 498.834 309.87 497.536 309.87Z" fill="#202D37"/>
<path d="M497.536 310.426H495.347C493.714 310.426 492.416 309.128 492.416 307.495V305.937C492.416 304.305 493.714 303.006 495.347 303.006H497.536C499.168 303.006 500.467 304.305 500.467 305.937V307.495C500.467 309.128 499.131 310.426 497.536 310.426ZM495.347 304.156C494.345 304.156 493.529 304.972 493.529 305.974V307.532C493.529 308.534 494.345 309.35 495.347 309.35H497.536C498.537 309.35 499.354 308.534 499.354 307.532V305.974C499.354 304.972 498.537 304.156 497.536 304.156H495.347Z" fill="#202D37"/>
<path d="M497.536 333.466H495.347C494.048 333.466 492.972 332.39 492.972 331.091V329.533C492.972 328.235 494.048 327.159 495.347 327.159H497.536C498.834 327.159 499.91 328.235 499.91 329.533V331.091C499.91 332.39 498.834 333.466 497.536 333.466Z" fill="#202D37"/>
<path d="M497.536 334.022H495.347C493.714 334.022 492.416 332.724 492.416 331.091V329.533C492.416 327.901 493.714 326.602 495.347 326.602H497.536C499.168 326.602 500.467 327.901 500.467 329.533V331.091C500.467 332.724 499.131 334.022 497.536 334.022ZM495.347 327.715C494.345 327.715 493.529 328.531 493.529 329.533V331.091C493.529 332.093 494.345 332.909 495.347 332.909H497.536C498.537 332.909 499.354 332.093 499.354 331.091V329.533C499.354 328.531 498.537 327.715 497.536 327.715H495.347Z" fill="#202D37"/>
<path d="M522.653 308.72H520.464C519.165 308.72 518.089 307.644 518.089 306.345V304.787C518.089 303.488 519.165 302.412 520.464 302.412H522.653C523.951 302.412 525.027 303.488 525.027 304.787V306.345C525.027 307.644 523.951 308.72 522.653 308.72Z" fill="#202D37"/>
<path d="M522.653 309.276H520.464C518.831 309.276 517.533 307.978 517.533 306.345V304.787C517.533 303.155 518.831 301.856 520.464 301.856H522.653C524.285 301.856 525.584 303.155 525.584 304.787V306.345C525.584 307.941 524.248 309.276 522.653 309.276ZM520.464 302.969C519.462 302.969 518.646 303.785 518.646 304.787V306.345C518.646 307.347 519.462 308.163 520.464 308.163H522.653C523.655 308.163 524.471 307.347 524.471 306.345V304.787C524.471 303.785 523.655 302.969 522.653 302.969H520.464Z" fill="#202D37"/>
<path d="M522.653 333.466H520.464C519.165 333.466 518.089 332.39 518.089 331.091V329.533C518.089 328.235 519.165 327.159 520.464 327.159H522.653C523.951 327.159 525.027 328.235 525.027 329.533V331.091C525.027 332.39 523.951 333.466 522.653 333.466Z" fill="#202D37"/>
<path d="M522.653 334.022H520.464C518.831 334.022 517.533 332.724 517.533 331.091V329.533C517.533 327.901 518.831 326.602 520.464 326.602H522.653C524.285 326.602 525.584 327.901 525.584 329.533V331.091C525.584 332.724 524.248 334.022 522.653 334.022ZM520.464 327.715C519.462 327.715 518.646 328.531 518.646 329.533V331.091C518.646 332.093 519.462 332.909 520.464 332.909H522.653C523.655 332.909 524.471 332.093 524.471 331.091V329.533C524.471 328.531 523.655 327.715 522.653 327.715H520.464Z" fill="#202D37"/>
<path d="M521.577 315.583C518.424 315.583 514.973 315.435 513.341 315.064C511.857 314.73 511.56 313.914 511.597 313.32C511.597 313.023 511.634 312.096 511.634 310.909C511.857 295.734 512.191 295.4 512.822 294.844C514.157 293.657 522.765 293.508 527.773 295.994C530.927 297.552 532.3 302.042 532.93 305.566C533.487 308.868 533.598 312.838 533.153 313.877C532.856 314.582 532.522 315.324 523.989 315.509C523.21 315.546 522.394 315.583 521.577 315.583ZM514.157 312.578C517.014 313.135 528.033 313.06 530.741 312.467C530.927 309.944 530.296 300.186 526.586 298.331C522.69 296.402 516.532 296.476 514.714 296.81C514.38 299.111 514.231 307.903 514.194 310.946C514.194 311.613 514.194 312.17 514.157 312.578Z" fill="#202D37"/>
<path d="M500.986 344.819C496.237 344.819 487.927 343.891 485.255 337.732C482.844 332.167 484.068 322.855 484.884 321.631C485.255 321.037 485.663 320.406 492.119 320.221C495.384 320.147 499.242 320.221 501.913 320.444C504.844 320.666 505.735 320.963 506.069 321.816C506.477 322.744 506.366 328.977 506.291 332.613C506.032 342.518 505.549 343.557 505.364 343.891C505.104 344.448 504.659 344.633 504.436 344.67C504.399 344.67 503.027 344.819 500.986 344.819ZM487.036 323.226C486.591 325.044 485.738 332.353 487.63 336.694C490.078 342.333 500.17 342.444 503.138 342.185C503.62 339.068 503.917 326.343 503.694 323.226C500.912 322.744 489.485 322.558 487.036 323.226Z" fill="#202D37"/>
<path d="M513.118 328.457H513.081C512.376 328.42 511.783 327.826 511.82 327.121C511.857 325.897 511.857 324.858 511.857 323.968C511.857 321.482 511.857 320.555 512.525 319.887C513.007 319.405 513.118 319.293 525.695 319.516C526.4 319.516 526.994 320.109 526.957 320.851C526.957 321.556 526.363 322.113 525.658 322.113C525.658 322.113 525.658 322.113 525.621 322.113C521.243 322.039 516.346 322.002 514.454 322.039C514.417 322.558 514.417 323.263 514.417 323.968C514.417 324.858 514.417 325.934 514.38 327.196C514.38 327.901 513.823 328.457 513.118 328.457Z" fill="#202D37"/>
<path d="M524.434 343.446C523.914 343.446 523.432 343.149 523.247 342.667C522.95 341.999 523.284 341.257 523.914 340.96C527.55 339.402 532.077 337.473 531.297 320.332C531.26 319.627 531.817 318.997 532.522 318.96C533.227 318.923 533.857 319.479 533.895 320.184C534.711 337.658 530.11 341.109 524.953 343.335C524.768 343.409 524.619 343.446 524.434 343.446Z" fill="#202D37"/>
<path d="M515.604 344.262C513.304 344.262 512.339 344.04 511.931 343.149C511.672 342.593 511.634 341.665 511.597 337.102C511.597 336.137 511.56 335.061 511.56 333.948C511.56 333.243 512.117 332.65 512.822 332.613C513.527 332.613 514.12 333.169 514.157 333.874C514.157 334.987 514.194 336.063 514.194 337.065C514.232 338.846 514.232 340.663 514.306 341.628C515.233 341.702 516.977 341.665 517.83 341.628C518.313 341.628 518.721 341.591 519.018 341.591C519.722 341.591 520.316 342.185 520.316 342.89C520.316 343.594 519.722 344.188 519.018 344.188C518.758 344.188 518.387 344.188 517.905 344.225C517.014 344.262 516.235 344.262 515.604 344.262Z" fill="#202D37"/>
<path d="M284.577 209.215C284.54 209.215 284.503 209.215 284.429 209.215C283.724 209.141 283.204 208.51 283.279 207.806C285.208 189.292 292.071 160.984 293.556 154.937C291.441 154.195 286.655 152.525 281.906 150.559C270.034 145.625 268.55 143.25 268.698 141.432C268.809 140.208 268.958 138.501 292.183 129.486C303.313 125.145 314.555 121.175 314.666 121.138C315.334 120.916 316.076 121.25 316.335 121.917C316.558 122.585 316.224 123.327 315.556 123.587C295.485 130.673 273.892 139.243 271.369 141.766C271.703 142.36 273.595 144.326 283.427 148.37C289.437 150.856 295.411 152.822 295.485 152.859C296.115 153.082 296.486 153.75 296.338 154.418C296.264 154.752 287.99 187.549 285.839 208.102C285.801 208.733 285.245 209.215 284.577 209.215Z" fill="#202D37"/>
<path d="M311.995 168.738C311.29 168.738 310.697 168.145 310.697 167.44C310.697 166.735 311.29 166.141 311.995 166.141C318.339 166.141 322.049 163.322 322.383 158.202C322.42 157.497 323.051 156.94 323.756 156.978C324.461 157.015 325.017 157.645 324.98 158.35C324.535 164.843 319.675 168.738 311.995 168.738Z" fill="#202D37"/>
<path d="M326.019 221.793C325.982 221.793 325.907 221.793 325.87 221.793C325.165 221.719 324.646 221.088 324.72 220.346C325.685 211.442 327.058 200.757 328.801 188.588C331.064 172.634 333.142 159.76 333.142 159.612C333.253 158.981 333.81 158.499 334.441 158.536C338.707 158.61 342.417 158.425 345.46 157.942C351.804 156.941 353.881 155.049 354.549 154.01C354.994 153.305 355.106 152.526 354.846 151.71C354.03 149.001 345.051 146.627 333.031 147.406C332.326 147.443 331.695 146.924 331.658 146.181C331.621 145.477 332.14 144.846 332.882 144.809C343.567 144.141 355.774 145.773 357.369 150.967C357.851 152.526 357.629 154.047 356.775 155.42C355.18 157.942 351.544 159.686 345.905 160.539C342.974 160.985 339.523 161.207 335.554 161.17C334.997 164.621 333.253 175.751 331.398 188.996C329.692 201.128 328.319 211.776 327.354 220.643C327.243 221.31 326.687 221.793 326.019 221.793Z" fill="#202D37"/>
<path d="M335.368 154.047C334.738 154.047 334.181 153.564 334.07 152.934C333.959 152.229 334.478 151.561 335.183 151.487C340.414 150.782 346.276 151.042 346.536 151.079C347.241 151.116 347.797 151.709 347.76 152.451C347.723 153.156 347.092 153.713 346.387 153.676C346.313 153.676 340.525 153.379 335.517 154.084C335.48 154.047 335.443 154.047 335.368 154.047Z" fill="#202D37"/>
<path d="M333.402 124.848C333.402 124.848 342.566 120.619 349.392 128.225C357.332 137.166 348.761 146.664 348.576 146.96C343.53 145.959 337.891 145.922 337.891 145.922C338.447 154.974 334.737 156.384 333.142 156.161C331.51 155.939 332.103 152.748 332.103 152.748C309.36 144.883 316.447 125.516 316.447 125.516C312.143 127.297 304.129 126.332 303.944 126.407C306.541 113.125 327.54 114.72 333.402 124.848Z" fill="#202D37"/>
<path d="M333.439 157.497C333.253 157.497 333.105 157.497 332.919 157.46C332.252 157.349 331.695 157.015 331.324 156.495C330.731 155.679 330.656 154.529 330.693 153.676C323.57 151.005 318.636 146.923 316.076 141.507C313.442 135.979 313.961 130.451 314.592 127.446C310.845 128.225 306.244 127.891 304.5 127.779C304.278 127.779 304.092 127.742 304.018 127.742C303.684 127.779 303.35 127.668 303.09 127.446C302.719 127.149 302.571 126.666 302.645 126.221C303.758 120.693 307.914 116.909 314.072 115.87C321.752 114.572 330.063 117.762 333.921 123.29C336.704 122.4 344.421 120.73 350.357 127.408C358 136.016 351.767 145.106 349.652 147.703L349.578 147.777C349.281 148.185 348.761 148.37 348.279 148.296C344.866 147.628 341.156 147.406 339.189 147.294C339.264 151.524 338.373 154.529 336.518 156.236C335.665 157.015 334.515 157.497 333.439 157.497ZM333.402 154.9C333.624 154.9 334.181 154.863 334.812 154.306C335.628 153.564 336.926 151.487 336.592 146.033C336.555 145.662 336.704 145.328 336.963 145.068C337.223 144.809 337.557 144.66 337.928 144.66C338.151 144.66 343.159 144.734 348.057 145.588C350.394 142.508 354.252 135.645 348.465 129.115C342.38 122.289 334.07 125.999 333.995 126.036C333.402 126.333 332.66 126.073 332.326 125.516C329.321 120.359 321.53 117.243 314.555 118.393C311.846 118.838 307.283 120.322 305.613 125.219C308.099 125.368 313.033 125.516 315.964 124.329C316.447 124.144 317.003 124.255 317.374 124.589C317.745 124.96 317.857 125.479 317.708 125.962C317.671 126.036 315.111 133.307 318.487 140.394C320.862 145.365 325.611 149.112 332.586 151.524C333.179 151.747 333.55 152.34 333.439 153.008C333.253 153.713 333.253 154.566 333.402 154.9Z" fill="#202D37"/>
<path d="M348.576 187.252C342.863 191.036 335.702 192.483 330.1 188.773C332.4 172.634 334.441 159.834 334.441 159.834C339.004 159.909 342.714 159.686 345.683 159.204C342.269 169.555 342.789 178.607 346.054 179.09C349.652 179.646 351.025 178.459 352.769 177.197C354.513 176.01 355.848 182.392 348.576 187.252Z" fill="#202D37"/>
<path d="M337.521 192.26C334.59 192.26 331.807 191.481 329.396 189.886C328.987 189.626 328.765 189.107 328.839 188.624C331.102 172.671 333.18 159.797 333.18 159.649C333.291 159.018 333.848 158.536 334.478 158.573C338.745 158.647 342.455 158.462 345.497 157.979C345.942 157.905 346.388 158.091 346.685 158.424C346.981 158.758 347.056 159.241 346.944 159.686C344.199 168.034 344.199 175.008 345.609 177.309C345.831 177.643 346.054 177.865 346.276 177.902C349.096 178.348 350.209 177.568 351.693 176.493L352.064 176.233C352.695 175.788 353.4 175.713 354.068 176.01C354.884 176.381 355.403 177.346 355.514 178.607C355.7 181.093 354.179 185.174 349.356 188.402C345.386 190.962 341.305 192.26 337.521 192.26ZM331.51 188.142C336.074 190.739 342.121 190.034 347.872 186.213C351.693 183.69 352.584 180.945 352.769 179.906C352.843 179.461 352.88 179.09 352.843 178.83C351.248 179.98 349.504 181.019 345.831 180.462C345.126 180.351 344.162 179.943 343.345 178.681C341.416 175.565 341.639 168.405 343.828 160.836C341.379 161.096 338.597 161.244 335.517 161.207C334.998 164.546 333.328 175.268 331.51 188.142Z" fill="#202D37"/>
<path d="M38.7109 92.3854C34.4072 92.3854 29.6584 92.1257 24.6869 91.8289C21.3107 91.6434 17.7861 91.4579 14.3358 91.3466C13.6308 91.3095 13.0743 90.7158 13.0743 90.0109C13.1114 89.306 13.705 88.7124 14.41 88.7495C17.8974 88.8608 21.422 89.0463 24.7982 89.2689C39.49 90.0851 53.4028 90.8643 54.8127 84.3345C54.9982 83.4812 55.2208 82.4053 55.4805 81.181C59.7099 61.1466 64.3846 40.2218 66.9075 36.6972C70.9886 30.9466 88.7227 35.6584 90.7262 36.2149C91.4311 36.4004 91.8392 37.1053 91.6166 37.8102C91.4311 38.5151 90.7262 38.9232 90.0212 38.7006C83.1205 36.8085 71.2854 34.9535 68.9851 38.2183C66.4623 41.78 60.3036 70.7928 58.0033 81.7375C57.7436 82.9618 57.521 84.0377 57.3355 84.891C56.0741 90.9385 48.691 92.3854 38.7109 92.3854Z" fill="#202D37"/>
<path d="M26.3086 98.9562C28.3805 96.8843 28.3805 93.5251 26.3086 91.4533C24.2367 89.3814 20.8776 89.3814 18.8057 91.4533C16.7338 93.5251 16.7338 96.8843 18.8057 98.9562C20.8776 101.028 24.2367 101.028 26.3086 98.9562Z" fill="#202D37"/>
<path d="M22.5725 101.105C19.3448 101.105 16.7106 98.4704 16.7106 95.2426C16.7106 92.0149 19.3448 89.3807 22.5725 89.3807C25.8003 89.3807 28.4345 92.0149 28.4345 95.2426C28.4345 98.4704 25.8003 101.105 22.5725 101.105ZM22.5725 90.4567C19.9384 90.4567 17.8237 92.6085 17.8237 95.2055C17.8237 97.8397 19.9755 99.9544 22.5725 99.9544C25.2067 99.9544 27.3214 97.8026 27.3214 95.2055C27.3214 92.6085 25.2067 90.4567 22.5725 90.4567Z" fill="#202D37"/>
<path d="M45.7599 101.03C48.69 101.03 51.0653 98.6544 51.0653 95.7243C51.0653 92.7943 48.69 90.4189 45.7599 90.4189C42.8298 90.4189 40.4545 92.7943 40.4545 95.7243C40.4545 98.6544 42.8298 101.03 45.7599 101.03Z" fill="#202D37"/>
<path d="M45.76 101.586C42.5322 101.586 39.8981 98.9522 39.8981 95.7245C39.8981 92.4967 42.5322 89.8625 45.76 89.8625C48.9877 89.8625 51.6219 92.4967 51.6219 95.7245C51.6219 98.9522 48.9877 101.586 45.76 101.586ZM45.76 90.9385C43.1258 90.9385 41.0111 93.0903 41.0111 95.6874C41.0111 98.3215 43.1629 100.436 45.76 100.436C48.357 100.436 50.5089 98.2844 50.5089 95.6874C50.5089 93.0903 48.357 90.9385 45.76 90.9385Z" fill="#202D37"/>
<path d="M13.334 76.5434C12.8516 76.5434 12.3693 76.5434 11.9241 76.5434C11.2192 76.5434 10.6256 75.9498 10.6256 75.2449C10.6256 74.54 11.2192 73.9463 11.9241 73.9463C23.7964 74.0205 57.8919 73.1672 58.2258 73.1301C58.9308 73.1301 59.5244 73.6866 59.5615 74.3915C59.5615 75.0965 59.0049 75.6901 58.3 75.7272C57.9661 75.7643 26.3192 76.5434 13.334 76.5434Z" fill="#202D37"/>
<path d="M64.4587 49.0514C62.2698 49.0514 11.2192 48.6804 1.46167 47.7529C0.756755 47.6786 0.237351 47.0479 0.274452 46.343C0.348653 45.6381 0.979361 45.1187 1.68427 45.1558C11.2934 46.0833 63.9022 46.4543 64.4587 46.4543C65.1636 46.4543 65.7572 47.0479 65.7572 47.7529C65.7572 48.4578 65.2007 49.0514 64.4587 49.0514Z" fill="#202D37"/>
<path d="M14.5218 76.135C14.1508 76.135 13.7427 75.9495 13.5201 75.6527C10.5892 71.9798 3.46582 55.878 3.46582 46.6771C3.46582 45.9722 4.05943 45.3785 4.76435 45.3785C5.46926 45.3785 6.06287 45.9722 6.06287 46.6771C6.06287 55.0618 12.9636 70.7554 15.5607 74.0574C16.0059 74.6139 15.8946 75.4301 15.3381 75.8753C15.1154 76.0608 14.8186 76.135 14.5218 76.135Z" fill="#202D37"/>
<path d="M34.8525 62.2598C26.9871 62.2598 17.8603 62.2598 8.13996 62.2598C7.43504 62.2598 6.84143 61.6662 6.84143 60.9612C6.84143 60.2563 7.43504 59.6627 8.13996 59.6627C37.1156 59.6998 61.0085 59.6627 61.2682 59.6627C61.9731 59.6627 62.5667 60.2563 62.5667 60.9612C62.5667 61.6662 61.9731 62.2598 61.2682 62.2598C61.0827 62.2598 50.4719 62.2598 34.8525 62.2598Z" fill="#202D37"/>
<path d="M25.837 76.1353C25.2434 76.1353 24.6869 75.6901 24.5756 75.0965C22.8319 65.8213 23.7594 47.9759 23.7965 47.1968C23.8336 46.4919 24.4272 45.9354 25.1692 45.9725C25.8741 46.0096 26.4306 46.6403 26.3935 47.3452C26.3935 47.5307 25.4289 65.6358 27.1355 74.6142C27.2839 75.3191 26.8016 75.9869 26.0967 76.1353C25.9854 76.1353 25.9112 76.1353 25.837 76.1353Z" fill="#202D37"/>
<path d="M44.573 75.7272C43.9051 75.7272 43.3115 75.2078 43.2744 74.54C43.2744 74.4287 42.384 61.8145 44.0164 47.4194C44.0906 46.7145 44.7585 46.1951 45.4634 46.2693C46.1683 46.3435 46.6877 47.0113 46.6135 47.7162C44.9811 61.8516 45.8715 74.2432 45.8715 74.3545C45.9086 75.0594 45.3892 75.6901 44.6843 75.7272C44.6472 75.7272 44.6101 75.7272 44.573 75.7272Z" fill="#202D37"/>
<path d="M358.519 397.687C357.74 397.687 356.998 397.613 356.33 397.502C355.625 397.39 355.143 396.722 355.254 396.017C355.365 395.313 356.033 394.83 356.738 394.942C361.301 395.647 371.17 394.014 386.344 374.833C415.06 338.548 423.334 317.846 417.88 295.697C412.018 271.879 384.675 255.777 376.439 251.399C372.098 249.099 363.119 243.645 353.585 237.82C342.157 230.882 327.985 222.275 325.944 221.755C325.536 221.793 324.72 222.126 323.83 222.535C320.305 224.056 313.701 226.912 301.866 223.981C290.625 221.236 287.805 215.671 285.95 211.961C285.245 210.551 284.688 209.475 283.909 208.993C280.793 207.101 251.001 204.615 243.915 204.467H243.173C231.523 204.244 220.578 203.353 219.391 198.382C218.76 195.674 217.165 193.299 209.93 194.412C207 194.857 205.033 194.524 203.735 193.336C202.251 191.964 202.176 189.775 202.325 187.808C202.399 186.992 202.585 184.469 198.429 184.098L198.207 184.061C194.126 183.727 192.901 182.243 192.679 173.302C192.493 166.512 176.577 151.598 168.934 144.438C166.523 142.174 164.779 140.542 164 139.652C161.662 136.943 150.05 133.864 143.075 132.936C142.37 132.825 141.851 132.194 141.962 131.489C142.073 130.784 142.704 130.265 143.409 130.376C149.048 131.118 162.59 134.086 165.966 137.982C166.634 138.761 168.452 140.468 170.715 142.583C182.476 153.601 195.09 165.993 195.276 173.265C195.387 177.346 195.721 179.72 196.315 180.722C196.648 181.279 196.982 181.39 198.429 181.501L198.652 181.538C202.844 181.909 205.182 184.321 204.922 188.031C204.773 189.923 204.959 190.962 205.516 191.444C206.146 192.038 207.519 192.149 209.559 191.852C212.194 191.444 220.17 190.257 221.951 197.788C222.062 198.308 223.027 200.014 230.113 201.016C234.714 201.684 240.056 201.795 243.284 201.832H244.026C248.478 201.907 281.09 204.17 285.319 206.73C286.729 207.583 287.471 209.03 288.324 210.737C290.068 214.187 292.48 218.936 302.534 221.384C313.553 224.093 319.378 221.57 322.865 220.049C324.201 219.492 325.165 219.047 326.093 219.084C327.725 219.121 334.366 223.017 354.994 235.52C364.492 241.308 373.47 246.761 377.737 249.024C386.233 253.514 414.356 270.135 420.477 294.992C426.154 318.032 417.769 339.328 388.459 376.354C374.843 393.569 364.937 397.687 358.519 397.687Z" fill="#202D37"/>
<path d="M335.814 369.417C335.257 369.417 334.738 369.046 334.553 368.489C331.993 359.511 332.549 357.433 334.924 353.241C335.851 351.645 339.116 347.75 343.308 342.778C350.357 334.393 361.005 321.779 362.378 317.142C364.381 310.389 361.673 300.743 328.802 276.182C328.245 275.737 328.097 274.958 328.542 274.365C328.987 273.808 329.767 273.66 330.36 274.105C362.601 298.183 367.461 309.017 364.864 317.847C363.343 322.966 353.363 334.876 345.312 344.411C341.379 349.085 338.003 353.092 337.224 354.465C335.183 358.027 334.738 359.399 337.112 367.71C337.298 368.415 336.927 369.12 336.222 369.305C336.037 369.417 335.925 369.417 335.814 369.417Z" fill="#202D37"/>
<path d="M237.979 267.909C237.942 267.909 237.867 267.909 237.83 267.909C231.56 267.129 175.983 259.635 157.136 243.199C136.1 224.835 114.879 172.226 114.693 171.706C112.615 166.401 112.356 162.06 113.654 153.898C113.765 153.193 114.433 152.711 115.138 152.822C115.843 152.933 116.325 153.601 116.214 154.306C114.99 162.023 115.175 165.882 117.105 170.779C117.29 171.298 138.252 223.276 158.843 241.27C177.096 257.224 231.968 264.57 238.164 265.349C238.869 265.423 239.389 266.091 239.277 266.796C239.203 267.426 238.609 267.909 237.979 267.909Z" fill="#202D37"/>
<path d="M223.954 293.805C223.732 293.805 223.472 293.731 223.287 293.62C222.693 293.249 222.47 292.433 222.841 291.839C225.661 287.238 239.796 263.605 243.284 248.876C243.432 248.171 244.137 247.726 244.842 247.912C245.547 248.06 245.955 248.765 245.807 249.47C242.245 264.607 227.887 288.574 225.068 293.212C224.808 293.583 224.363 293.805 223.954 293.805Z" fill="#202D37"/>
<path d="M348.502 403.624C347.648 403.624 345.868 403.624 336.221 392.011C333.179 388.338 327.095 380.658 326.798 379.508C325.759 375.538 332.771 369.046 334.96 367.154C335.257 366.894 335.628 366.783 335.999 366.857C336.37 366.894 336.704 367.116 336.889 367.413C341.49 374.388 354.141 393.013 357.295 395.35C357.591 395.573 357.777 395.87 357.814 396.241C357.851 396.612 357.74 396.946 357.517 397.205C356.627 398.281 352.026 403.624 348.502 403.624ZM329.284 378.729C329.803 379.657 333.662 384.814 338.188 390.304C346.09 399.839 348.205 400.915 348.539 401.027C350.06 400.952 352.768 398.578 354.698 396.5C350.097 391.751 338.93 375.204 335.554 370.122C332.14 373.275 329.061 377.208 329.284 378.729Z" fill="#202D37"/>
<path d="M303.907 433.007C302.942 433.007 302.163 432.711 301.643 432.117C300.901 431.301 300.753 430.113 301.272 428.518C299.343 429.631 297.34 430.41 296.041 429.928C295.262 429.631 294.78 429 294.594 428.11C294.038 424.919 297.191 421.395 300.568 417.685C302.757 415.236 305.02 412.713 305.799 410.71C306.986 407.519 307.283 405.145 307.283 403.957C307.209 403.995 307.134 404.032 307.06 404.032C302.423 405.813 297.266 407.63 294.631 406.295C293.852 405.887 293.333 405.256 293.11 404.44C292.294 401.398 297.822 397.762 309.398 390.416C315.556 386.52 322.568 382.105 327.28 378.135C327.837 377.69 328.653 377.727 329.098 378.284C329.543 378.84 329.506 379.656 328.95 380.102C324.089 384.183 317.003 388.672 310.77 392.605C306.689 395.202 302.831 397.613 299.974 399.691C296.153 402.473 295.67 403.512 295.633 403.772C295.67 403.846 295.707 403.883 295.819 403.957C297.674 404.885 304.055 402.399 306.17 401.583C307.357 401.138 307.691 400.989 307.988 400.989C308.507 400.952 309.027 401.175 309.36 401.62C310.548 403.178 309.62 407.89 308.247 411.6C307.32 414.086 304.871 416.794 302.534 419.391C299.937 422.248 297.043 425.513 297.154 427.479C298.23 427.368 301.347 425.587 303.981 423.472C304.463 423.064 305.205 423.101 305.65 423.51C306.133 423.955 306.207 424.66 305.873 425.179C303.461 428.889 303.573 430.113 303.61 430.336C303.87 430.41 305.02 430.447 307.394 429.26C307.914 429 308.581 429.112 308.952 429.557C309.138 429.78 309.472 430.076 310.214 430.113C313.442 430.225 319.86 425.068 323.125 421.803C323.607 421.321 324.349 421.284 324.869 421.692C325.388 422.1 325.499 422.842 325.128 423.398C324.127 424.994 322.754 427.85 323.014 429V429.038C324.201 428.629 327.8 425.847 333.661 419.466C339.264 413.344 344.421 406.629 347.426 401.583C347.797 400.952 348.576 400.767 349.207 401.138C349.837 401.509 350.023 402.288 349.652 402.919C346.424 408.335 340.748 415.681 334.774 422.1C324.572 433.082 322.643 431.969 321.826 431.486C321.158 431.078 320.676 430.447 320.491 429.668C320.342 429.038 320.379 428.37 320.491 427.628C317.374 430.113 313.256 432.822 310.102 432.748C309.212 432.71 308.433 432.451 307.765 432.006C306.244 432.673 304.945 433.007 303.907 433.007Z" fill="#202D37"/>
<path d="M304.76 425.81C304.389 425.81 304.018 425.661 303.759 425.364C303.276 424.808 303.35 423.992 303.907 423.546C309.175 419.02 314.592 412.936 315.519 411.192C315.853 410.561 316.632 410.301 317.263 410.672C317.894 411.006 318.154 411.785 317.783 412.416C316.595 414.605 310.882 420.949 305.539 425.513C305.354 425.735 305.057 425.81 304.76 425.81Z" fill="#202D37"/>
<path d="M307.95 431.783C307.542 431.783 307.134 431.597 306.875 431.226C306.466 430.632 306.615 429.816 307.208 429.408C314.072 424.696 321.047 415.903 321.121 415.829C321.566 415.273 322.383 415.161 322.939 415.607C323.496 416.052 323.607 416.868 323.162 417.425C322.865 417.796 315.853 426.626 308.693 431.523C308.47 431.708 308.21 431.783 307.95 431.783Z" fill="#202D37"/>
<path d="M323.979 424.066C323.682 424.066 323.385 423.955 323.125 423.732C322.569 423.25 322.532 422.434 323.014 421.914C323.793 420.987 324.684 419.911 325.092 419.354C325.351 419.02 326.168 417.982 327.169 418.724C327.578 419.02 327.986 419.762 327.429 420.579C327.392 420.653 327.318 420.727 327.244 420.764C327.206 420.801 327.169 420.838 327.132 420.912C326.687 421.469 325.834 422.619 324.98 423.584C324.721 423.918 324.35 424.066 323.979 424.066Z" fill="#202D37"/>
<path d="M177.356 370.159C176.688 370.159 176.132 369.639 176.058 368.971C175.798 366.003 174.536 350.124 173.461 330.35C172.83 318.44 172.607 310.204 175.538 304.156C178.729 297.515 185.518 294.176 197.539 293.36C206.925 292.692 224.882 291.134 245.696 289.316C277.454 286.534 316.966 283.046 339.598 281.71C340.302 281.673 340.933 282.23 340.97 282.935C341.007 283.64 340.451 284.27 339.746 284.308C317.152 285.643 277.676 289.094 245.918 291.913C225.105 293.731 207.148 295.326 197.724 295.957C186.743 296.736 180.658 299.593 177.913 305.307C175.278 310.76 175.501 318.737 176.095 330.201C177.171 349.939 178.432 365.781 178.655 368.749C178.729 369.454 178.172 370.084 177.467 370.159C177.43 370.159 177.393 370.159 177.356 370.159Z" fill="#202D37"/>
<path d="M180.065 423.769C174.574 423.769 171.309 422.434 169.899 419.762C164.965 410.19 165.707 383.404 167.562 375.019C169.528 366.115 176.54 367.302 181.66 368.155C182.068 368.229 182.439 368.304 182.847 368.341C187.893 369.157 211.563 365.002 220.579 362.739C225.847 361.403 230.485 360.475 233.712 362.664C235.938 364.148 237.237 366.894 237.868 371.272C238.832 378.284 239.723 389.6 240.428 403.92C240.761 411.081 236.346 412.565 223.547 415.014C220.467 415.607 216.312 416.683 211.526 417.944C203.549 420.022 194.497 422.359 186.817 423.398C184.22 423.621 181.994 423.769 180.065 423.769ZM170.085 375.538C168.155 384.294 167.933 410.265 172.199 418.538C173.09 420.245 176.28 422.026 186.409 420.69C193.94 419.688 202.919 417.388 210.821 415.31C215.681 414.049 219.874 412.973 223.027 412.342C236.68 409.745 238.016 408.447 237.793 403.957C237.088 389.711 236.235 378.506 235.271 371.531C234.788 368.007 233.786 365.781 232.265 364.742C230.151 363.295 226.737 363.777 221.209 365.187C212.899 367.302 188.19 371.754 182.439 370.864C182.031 370.789 181.623 370.715 181.252 370.678C175.167 369.676 171.42 369.491 170.085 375.538Z" fill="#202D37"/>
<path d="M218.056 472.519C189.711 472.519 184.443 464.32 183.404 457.308C182.476 451.187 180.733 436.94 179.916 422.545C179.879 421.84 180.436 421.209 181.141 421.172C181.846 421.135 182.476 421.691 182.513 422.396C183.33 436.68 185.073 450.816 186.001 456.9C186.52 460.425 188.264 464.84 197.279 467.548C208.521 470.924 228.11 470.664 255.49 466.695C282.982 462.725 318.71 457.011 350.283 451.966C383.562 446.66 412.278 442.06 422.184 440.984C440.549 438.98 450.863 436.717 448.971 413.344C447.116 390.601 439.213 308.868 436.839 291.468C434.613 275.255 428.899 273.771 407.344 274.958C406.639 274.995 406.008 274.439 405.971 273.734C405.934 273.029 406.49 272.398 407.195 272.361C418.622 271.73 425.746 271.879 430.643 274.402C435.54 276.962 438.1 281.785 439.362 291.097C441.773 308.534 449.676 390.341 451.531 413.121C453.571 438.35 441.922 441.466 422.444 443.581C412.612 444.657 383.896 449.257 350.654 454.563C319.118 459.608 283.353 465.322 255.824 469.292C240.057 471.555 227.739 472.519 218.056 472.519Z" fill="#202D37"/>
<path d="M217.722 400.507C212.379 400.507 208.039 396.166 208.039 390.824C208.039 385.481 212.379 381.14 217.722 381.14C223.064 381.14 227.405 385.481 227.405 390.824C227.405 396.166 223.064 400.507 217.722 400.507ZM217.722 383.737C213.826 383.737 210.636 386.928 210.636 390.824C210.636 394.719 213.826 397.91 217.722 397.91C221.617 397.91 224.808 394.719 224.808 390.824C224.808 386.928 221.617 383.737 217.722 383.737Z" fill="#202D37"/>
<path d="M311.995 379.285C306.652 379.285 302.311 374.944 302.311 369.602C302.311 364.259 306.652 359.919 311.995 359.919C317.337 359.919 321.678 364.259 321.678 369.602C321.678 374.944 317.337 379.285 311.995 379.285ZM311.995 362.516C308.099 362.516 304.908 365.706 304.908 369.602C304.908 373.497 308.099 376.688 311.995 376.688C315.89 376.688 319.081 373.497 319.081 369.602C319.081 365.706 315.89 362.516 311.995 362.516Z" fill="#202D37"/>
<path d="M298.156 360.883C298.008 360.883 297.822 360.846 297.674 360.772C297.006 360.512 296.672 359.733 296.969 359.065C298.453 355.392 302.571 352.536 307.988 351.386C313.219 350.273 320.491 350.718 325.24 355.281C325.759 355.763 325.759 356.617 325.277 357.099C324.795 357.618 323.941 357.618 323.459 357.136C320.157 353.946 314.295 352.684 308.544 353.908C303.981 354.873 300.568 357.173 299.381 360.03C299.158 360.587 298.676 360.883 298.156 360.883Z" fill="#202D37"/>
<path d="M294.261 350.05C294.112 350.05 293.964 350.013 293.816 349.976C293.148 349.716 292.814 348.974 293.036 348.306C294.854 343.483 299.937 339.773 306.652 338.363C314.406 336.768 322.049 338.734 326.613 343.483C327.095 344.003 327.095 344.819 326.575 345.301C326.056 345.783 325.24 345.783 324.758 345.264C320.046 340.367 312.589 339.773 307.209 340.886C301.458 342.073 296.969 345.264 295.485 349.16C295.3 349.716 294.817 350.05 294.261 350.05Z" fill="#202D37"/>
<path d="M286.284 340.96C286.099 340.96 285.913 340.923 285.765 340.849C285.097 340.552 284.8 339.773 285.097 339.142C287.397 333.948 293.556 329.904 301.941 328.049C312.96 325.638 324.35 327.79 330.917 333.577C331.473 334.06 331.51 334.876 331.028 335.395C330.545 335.952 329.729 335.989 329.21 335.507C323.237 330.275 312.737 328.309 302.497 330.572C295.04 332.205 289.401 335.803 287.472 340.181C287.249 340.664 286.767 340.96 286.284 340.96Z" fill="#202D37"/>
<path d="M114.693 155.827C114.396 155.827 114.063 155.753 113.729 155.531C111.651 154.38 105.01 145.55 106.309 141.544C108.423 134.94 127.345 122.845 137.436 121.658C138.289 121.546 139.625 121.917 142.037 125.59C143.224 127.371 144.485 129.708 144.671 131.007C144.893 132.343 144.04 132.899 143.483 133.01C140.886 133.567 119.962 150.448 115.843 155.308C115.584 155.605 115.176 155.827 114.693 155.827ZM137.547 124.292C127.827 125.553 110.427 137.166 108.757 142.397C108.089 144.512 112.504 151.227 114.508 152.971C118.997 148.296 136.509 133.567 141.962 130.896C141.295 129.041 138.66 124.885 137.547 124.292Z" fill="#202D37"/>
<path d="M105.307 133.344C105.084 133.344 104.862 133.27 104.639 133.159C101.04 131.081 98.8514 126.221 99.0369 120.767C99.1482 117.725 99.9644 115.091 101.411 113.087C95.8462 113.458 87.0533 113.347 85.829 108.784C84.2337 102.848 94.9187 99.9167 105.27 97.06C105.938 96.8745 106.605 96.689 107.236 96.5035C104.936 88.7123 101.857 80.2162 100.484 79.2516C100.001 78.8806 99.1853 78.4354 98.2577 77.8789C94.3251 75.5045 87.7211 71.5718 86.9049 66.3777C86.3855 63.0015 87.313 60.1819 89.3907 58.8091C91.0231 57.7703 93.0637 57.8074 94.7703 58.9204C95.6236 59.477 97.7012 60.6642 100.15 62.074C110.278 67.8988 115.25 70.904 116.177 72.388C117.476 74.4656 134.394 117.948 136.286 122.919C136.546 123.587 136.212 124.329 135.544 124.589C134.876 124.848 134.134 124.515 133.874 123.847C126.417 104.629 114.953 75.3932 113.988 73.7607C113.061 72.4993 103.489 66.9713 98.8885 64.3371C96.3285 62.8531 94.288 61.703 93.3604 61.1094C92.5071 60.5529 91.5425 60.5158 90.8005 60.9981C89.6133 61.7772 89.0939 63.6322 89.4649 65.9696C90.0956 69.9765 96.0317 73.5381 99.5934 75.6529C100.558 76.2465 101.411 76.7288 102.005 77.174C104.825 79.2145 108.906 92.9418 110.093 97.0971C110.204 97.431 110.13 97.802 109.982 98.0988C109.796 98.3956 109.536 98.6182 109.202 98.7295C108.164 99.0263 107.088 99.3231 105.938 99.6199C98.5546 101.66 87.3872 104.703 88.3148 108.153C89.0568 110.973 98.7772 111.01 105.084 110.157C105.715 110.082 106.309 110.453 106.494 111.047C106.68 111.641 106.383 112.308 105.826 112.605C103.341 113.83 101.745 116.946 101.597 120.879C101.448 125.294 103.155 129.338 105.901 130.933C106.531 131.304 106.717 132.083 106.383 132.714C106.197 133.122 105.752 133.344 105.307 133.344Z" fill="#202D37"/>
<path d="M107.533 143.251C107.459 143.251 107.385 143.251 107.31 143.214C104.491 142.731 98.9998 139.652 94.4364 134.94C90.3924 130.748 85.5693 123.773 85.6806 114.386C85.6806 113.682 86.2742 113.088 86.9791 113.088C87.684 113.088 88.2777 113.682 88.2777 114.386C88.1664 122.882 92.5813 129.264 96.2914 133.122C100.743 137.723 105.641 140.283 107.718 140.654C108.423 140.765 108.906 141.433 108.794 142.138C108.683 142.806 108.127 143.251 107.533 143.251Z" fill="#202D37"/>
<path d="M97.4783 102.031C96.996 102.031 96.5508 101.772 96.291 101.289C93.5085 95.5759 91.7648 88.1929 95.1038 84.5199C96.5507 82.9617 99.4446 81.5889 105.269 83.8521C105.937 84.1118 106.271 84.8538 106.011 85.5216C105.752 86.1894 105.01 86.5233 104.342 86.2636C101.893 85.299 98.6284 84.5199 97.0331 86.2636C95.0667 88.4155 95.6974 94.129 98.6284 100.139C98.9252 100.77 98.6655 101.549 98.0348 101.883C97.8493 101.994 97.6638 102.031 97.4783 102.031Z" fill="#202D37"/>
<path d="M89.5387 105.482C89.1306 105.482 88.6854 105.259 88.4628 104.888C85.4948 100.362 83.7139 93.5353 86.311 89.8253C87.3869 88.267 89.65 86.6717 94.3618 87.7847C95.0668 87.9331 95.4749 88.638 95.3265 89.3429C95.1781 90.0479 94.4732 90.456 93.7682 90.3076C91.1341 89.6769 89.3532 90.0108 88.4257 91.3093C86.6449 93.8692 88.1289 99.657 90.6147 103.441C91.0228 104.035 90.8373 104.851 90.2437 105.222C90.0582 105.408 89.7985 105.482 89.5387 105.482Z" fill="#202D37"/>
<path d="M91.2087 116.872C88.8343 116.872 85.8662 115.685 82.6385 113.347C78.0751 110.045 75.849 103.516 77.8896 99.3604C78.5945 97.9506 80.8205 94.8712 86.6824 96.6149C87.3873 96.8005 87.7583 97.5425 87.5728 98.2474C87.3502 98.9523 86.6453 99.3233 85.9404 99.1378C83.937 98.5442 81.3028 98.2845 80.1898 100.548C78.8542 103.256 80.3011 108.524 84.1225 111.27C88.4262 114.386 91.3571 114.683 92.5443 113.978C93.138 113.644 93.3977 112.939 93.2864 111.975C93.2122 111.27 93.7316 110.639 94.4365 110.565C95.1414 110.491 95.7721 111.01 95.8463 111.715C96.0318 113.718 95.2898 115.351 93.8058 116.241C93.1379 116.649 92.2475 116.872 91.2087 116.872Z" fill="#202D37"/>
<path d="M16.4132 306.531C8.43654 306.531 6.8412 304.119 5.69108 299.593C4.24415 293.842 3.20533 286.719 1.27609 269.096C1.23899 268.651 1.20189 268.243 1.12769 267.835L0.905085 265.943C0.459877 261.824 0.0888716 258.597 0.0146702 256C-0.207934 248.468 2.05521 245.908 10.069 244.647C32.8859 241.048 63.6424 238.303 75.2549 237.264C76.4051 237.152 77.3697 237.078 78.1117 237.004C84.5672 236.41 88.1289 238.636 90.0952 244.461C90.9485 246.984 91.5051 250.286 91.8761 254.627L91.9132 254.998C91.9874 255.703 91.4309 256.333 90.7259 256.408C90.021 256.482 89.3903 255.925 89.3161 255.22L89.279 254.849C88.9451 250.731 88.3886 247.615 87.6095 245.315C86.0141 240.64 83.6026 239.156 78.2972 239.601C77.5552 239.675 76.6277 239.749 75.4404 239.861C63.865 240.9 33.1456 243.608 10.44 247.207C3.68764 248.283 2.38911 249.73 2.57462 255.925C2.64882 258.411 3.01982 261.639 3.46503 265.683L3.68764 267.575C3.72474 267.983 3.79894 268.428 3.83604 268.836C5.72818 286.311 6.767 293.36 8.17683 298.962C9.32695 303.451 9.95766 305.937 34.4812 301.93C35.1862 301.819 35.854 302.301 35.9653 303.006C36.0766 303.711 35.5943 304.379 34.8894 304.49C26.4675 305.863 20.5685 306.531 16.4132 306.531Z" fill="#202D37"/>
<path d="M90.5776 254.701C76.0713 256.667 29.8438 262.9 2.31502 266.796C1.79561 262.232 1.38749 258.708 1.31329 255.925C21.1993 253.662 72.5838 246.984 88.871 244.869C89.6872 247.318 90.2437 250.509 90.5776 254.701Z" fill="#202D37"/>
<path d="M2.31513 267.352C2.20383 267.352 2.05542 267.315 1.98122 267.241C1.86991 267.167 1.79572 267.018 1.75862 266.87L1.64731 265.868C1.2021 261.787 0.831098 258.522 0.756897 255.962C0.756897 255.666 0.979497 255.443 1.2392 255.406C21.9785 253.031 77.8151 245.76 88.7598 244.35C89.0195 244.313 89.2792 244.461 89.3534 244.721C90.1696 247.17 90.7633 250.434 91.0972 254.701C91.1343 254.998 90.9117 255.257 90.6149 255.295L90.2809 255.332C75.2923 257.372 29.6584 263.531 2.35222 267.389C2.38932 267.352 2.35223 267.352 2.31513 267.352ZM1.90702 256.445C2.01832 258.893 2.35223 261.936 2.79744 265.757L2.83454 266.202C30.1036 262.381 74.8841 256.296 89.9841 254.256C89.6502 250.583 89.1679 247.726 88.463 245.5C76.5908 247.021 22.7576 254.033 1.90702 256.445Z" fill="#202D37"/>
<path d="M15.7085 282.564C14.6697 282.564 13.8164 282.49 13.1857 282.378C12.7775 282.304 11.5532 282.007 11.1451 280.931C10.7741 279.893 10.1805 277.815 9.80949 275.96C9.14167 272.621 9.40138 271.508 9.99499 270.877C11.7387 269.022 22.2753 267.835 26.0967 268.169C27.692 268.317 28.5454 268.651 28.9906 269.356C30.1036 271.025 31.9215 277.629 29.7697 279.855C28.3228 281.265 20.4203 282.564 15.7085 282.564ZM13.4825 279.781C15.5601 280.597 26.4306 279.039 27.9146 277.963C28.5454 277.184 27.8775 272.621 26.9129 270.877C26.208 270.617 23.5368 270.506 19.3444 270.988C15.3375 271.471 12.7404 272.176 11.9984 272.547C11.8871 273.66 12.7033 277.481 13.4825 279.781ZM10.9225 271.693L11.85 272.584L10.9225 271.693Z" fill="#202D37"/>
<path d="M190.676 356.431C190.008 356.431 189.414 355.912 189.377 355.207C189.229 352.721 189.043 350.273 188.858 347.861L188.709 345.969C188.672 345.264 189.191 344.633 189.896 344.596C190.601 344.559 191.232 345.078 191.269 345.783L191.418 347.675C191.603 350.087 191.789 352.536 191.937 355.059C191.974 355.763 191.455 356.394 190.713 356.431C190.75 356.431 190.713 356.431 190.676 356.431ZM189.488 337.918C188.783 337.918 188.227 337.361 188.19 336.657C188.116 335.061 188.078 333.614 188.078 332.279C188.078 330.424 188.153 328.791 188.264 327.233C188.301 326.528 188.932 325.972 189.674 326.046C190.379 326.083 190.935 326.714 190.861 327.456C190.75 328.94 190.676 330.498 190.676 332.279C190.676 333.577 190.713 334.987 190.75 336.582C190.787 337.287 190.23 337.918 189.488 337.918C189.525 337.918 189.488 337.918 189.488 337.918ZM191.566 319.664C191.38 319.664 191.195 319.627 191.047 319.553C190.379 319.256 190.119 318.477 190.416 317.846C191.455 315.546 192.902 313.728 194.682 312.43C195.424 311.873 196.389 311.354 197.502 310.872C198.17 310.575 198.912 310.909 199.209 311.539C199.506 312.207 199.172 312.949 198.541 313.246C197.613 313.654 196.834 314.062 196.204 314.507C194.757 315.583 193.606 317.03 192.753 318.922C192.531 319.368 192.048 319.664 191.566 319.664ZM206.963 310.872C206.332 310.872 205.813 310.426 205.701 309.796C205.59 309.091 206.035 308.423 206.74 308.274C209.449 307.792 212.602 307.347 216.052 306.976C216.757 306.902 217.388 307.421 217.462 308.126C217.536 308.831 217.017 309.462 216.312 309.536C212.936 309.87 209.857 310.315 207.222 310.797C207.111 310.872 207.037 310.872 206.963 310.872ZM225.439 308.905C224.771 308.905 224.177 308.386 224.14 307.681C224.103 306.976 224.66 306.345 225.365 306.308C229.817 306.048 233.378 305.974 234.714 305.974C234.714 305.974 234.714 305.974 234.751 305.974C235.456 305.974 236.05 306.531 236.05 307.236C236.05 307.941 235.493 308.534 234.788 308.571C233.49 308.608 229.965 308.646 225.55 308.905C225.476 308.905 225.439 308.905 225.439 308.905Z" fill="#202D37"/>
<path d="M389.462 431.115C388.794 431.115 388.238 430.633 388.163 429.965C388.089 429.26 388.609 428.592 389.313 428.518C392.43 428.147 395.509 427.776 398.514 427.368C399.219 427.256 399.887 427.776 399.961 428.481C400.073 429.186 399.553 429.853 398.848 429.928C395.843 430.336 392.727 430.707 389.61 431.078C389.573 431.078 389.536 431.115 389.462 431.115ZM407.901 428.666C407.27 428.666 406.714 428.221 406.602 427.553C406.491 426.848 406.973 426.18 407.678 426.069C411.092 425.55 414.171 425.03 416.805 424.511C417.51 424.363 418.178 424.845 418.326 425.55C418.475 426.255 417.992 426.923 417.287 427.071C414.616 427.59 411.537 428.11 408.086 428.629C408.049 428.666 407.975 428.666 407.901 428.666ZM426.117 424.956C425.561 424.956 425.079 424.622 424.893 424.066C424.67 423.398 425.041 422.656 425.709 422.433C426.192 422.285 426.637 422.099 427.008 421.951C429.234 421.023 430.681 419.539 431.571 417.276C431.831 416.609 432.573 416.275 433.241 416.534C433.909 416.794 434.242 417.536 433.983 418.204C432.833 421.172 430.903 423.175 428.009 424.363C427.564 424.548 427.082 424.734 426.525 424.919C426.377 424.919 426.229 424.956 426.117 424.956ZM433.983 409.893C433.278 409.893 432.684 409.337 432.684 408.595C432.647 406.146 432.462 403.141 432.091 399.468C432.016 398.763 432.536 398.132 433.241 398.058C433.946 397.984 434.576 398.503 434.651 399.208C435.022 402.955 435.244 406.035 435.244 408.595C435.281 409.3 434.725 409.893 433.983 409.893ZM432.276 391.417C431.645 391.417 431.089 390.935 430.978 390.304C430.607 387.522 430.198 384.516 429.753 381.326L429.716 381.14C429.605 380.435 430.124 379.767 430.829 379.693C431.534 379.582 432.202 380.101 432.276 380.806L432.313 380.992C432.758 384.182 433.167 387.188 433.538 390.007C433.649 390.712 433.129 391.38 432.424 391.454C432.387 391.417 432.35 391.417 432.276 391.417Z" fill="#202D37"/>
<path d="M226.737 456.677C223.213 456.64 220.059 456.455 217.314 456.121C216.609 456.047 216.089 455.379 216.201 454.674C216.275 453.969 216.943 453.45 217.648 453.561C220.282 453.895 223.324 454.08 226.737 454.117C227.442 454.117 228.036 454.711 228.036 455.416C228.036 456.084 227.442 456.677 226.737 456.677ZM235.975 456.381C235.307 456.381 234.714 455.861 234.677 455.156C234.64 454.451 235.196 453.821 235.901 453.783C237.942 453.672 240.131 453.487 242.431 453.301C243.136 453.227 243.766 453.784 243.841 454.488C243.915 455.193 243.358 455.824 242.653 455.898C240.353 456.121 238.127 456.269 236.049 456.381C236.049 456.381 236.012 456.381 235.975 456.381ZM208.558 453.821C208.372 453.821 208.187 453.783 208.038 453.709C204.625 452.188 202.214 450.036 200.655 447.105C200.321 446.475 200.544 445.696 201.175 445.362C201.806 445.028 202.585 445.25 202.919 445.881C204.217 448.255 206.22 450.036 209.077 451.335C209.745 451.632 210.042 452.411 209.745 453.041C209.522 453.524 209.04 453.821 208.558 453.821ZM199.505 438.869C198.837 438.869 198.281 438.35 198.207 437.682C198.021 435.53 197.947 433.267 197.873 430.855C197.836 430.039 197.836 429.186 197.799 428.332C197.762 427.627 198.318 426.997 199.06 426.997C199.765 426.96 200.396 427.516 200.396 428.258C200.433 429.111 200.433 429.965 200.47 430.781C200.544 433.155 200.618 435.382 200.767 437.459C200.841 438.164 200.284 438.795 199.579 438.869C199.579 438.869 199.542 438.869 199.505 438.869Z" fill="#202D37"/>
<path d="M36.1885 273.808C59.599 264.681 90.3555 255.851 98.7403 253.551C107.125 251.214 111.948 248.32 116.215 258.893C120.444 269.467 126.603 287.35 129.015 292.655C131.426 297.96 133.578 302.487 119.925 307.236C106.272 311.985 76.4799 321.408 64.1624 326.676C51.845 331.945 47.6526 333.651 40.9745 318.069C34.2963 302.487 31.3654 293.805 28.8796 286.2C26.3568 278.52 31.1428 275.774 36.1885 273.808Z" fill="#FBD931"/>
<path d="M97.8174 286.709C102.162 285.673 104.845 281.311 103.809 276.966C102.773 272.621 98.4112 269.939 94.0662 270.975C89.7213 272.011 87.0388 276.373 88.0747 280.718C89.1106 285.062 93.4725 287.745 97.8174 286.709Z" fill="#FFFEF2"/>
<path d="M95.9571 288.24C90.8001 288.24 86.5706 284.048 86.5706 278.854C86.5706 273.697 90.763 269.467 95.9571 269.467C101.151 269.467 105.344 273.66 105.344 278.854C105.344 284.048 101.114 288.24 95.9571 288.24ZM95.9571 272.064C92.2099 272.064 89.1677 275.107 89.1677 278.854C89.1677 282.601 92.2099 285.643 95.9571 285.643C99.7043 285.643 102.747 282.601 102.747 278.854C102.747 275.107 99.7043 272.064 95.9571 272.064Z" fill="#202D37"/>
<path d="M107.199 285.086C107.088 285.086 106.977 285.086 106.865 285.086C101.708 284.901 97.6272 280.56 97.8127 275.403C97.9982 270.246 102.339 266.165 107.496 266.351C112.653 266.536 116.734 270.877 116.549 276.034C116.4 281.08 112.208 285.086 107.199 285.086ZM100.41 275.44C100.336 277.258 101.003 278.965 102.228 280.3C103.452 281.636 105.159 282.378 106.94 282.452C108.757 282.526 110.464 281.859 111.8 280.634C113.135 279.41 113.877 277.703 113.952 275.923C114.063 272.175 111.132 269.022 107.385 268.911C103.675 268.762 100.521 271.73 100.41 275.44Z" fill="#202D37"/>
<path d="M105.047 296.921C104.527 296.921 104.008 296.588 103.823 296.031C103.6 295.363 103.934 294.621 104.639 294.361C111.317 292.061 116.659 290.28 116.697 290.28C117.364 290.058 118.106 290.429 118.329 291.097C118.552 291.764 118.181 292.506 117.513 292.729C117.476 292.729 112.133 294.51 105.492 296.81C105.344 296.884 105.195 296.921 105.047 296.921Z" fill="#202D37"/>
<path d="M87.8693 303.006C87.3498 303.006 86.8675 302.709 86.682 302.19C86.4223 301.522 86.7191 300.78 87.3869 300.483C89.242 299.704 90.9857 298.999 92.544 298.331C94.6216 297.478 96.9589 296.551 99.4447 295.549C100.112 295.289 100.855 295.623 101.114 296.291C101.374 296.959 101.04 297.701 100.372 297.96C97.8865 298.925 95.5862 299.89 93.5086 300.743C91.9503 301.374 90.2066 302.116 88.3516 302.895C88.2032 302.969 88.0177 303.006 87.8693 303.006Z" fill="#202D37"/>
<path d="M70.2466 310.501C69.7271 310.501 69.2819 310.204 69.0593 309.721C68.7625 309.054 69.0593 308.312 69.7272 308.015C73.363 306.419 77.4812 304.676 81.6365 302.932C82.3043 302.635 83.0463 302.969 83.3431 303.637C83.6399 304.305 83.306 305.047 82.6382 305.344C78.4829 307.087 74.4018 308.868 70.766 310.426C70.5805 310.463 70.395 310.501 70.2466 310.501Z" fill="#202D37"/>
<path d="M55.8146 317.03C55.3323 317.03 54.8871 316.771 54.6645 316.325C54.3305 315.695 54.5903 314.916 55.2581 314.582C57.4099 313.506 61.12 311.799 66.277 309.536C66.9448 309.239 67.6868 309.536 67.9836 310.204C68.2804 310.872 67.9836 311.614 67.3158 311.91C62.1959 314.136 58.56 315.843 56.4082 316.882C56.1856 316.993 56.0001 317.03 55.8146 317.03Z" fill="#202D37"/>
</svg>
